<?xml version="1.0" encoding="UTF-8" standalone="no"?>
<!-- Created with Inkscape (http://www.inkscape.org/) -->

<svg
   xmlns:dc="http://purl.org/dc/elements/1.1/"
   xmlns:cc="http://creativecommons.org/ns#"
   xmlns:rdf="http://www.w3.org/1999/02/22-rdf-syntax-ns#"
   xmlns:svg="http://www.w3.org/2000/svg"
   xmlns="http://www.w3.org/2000/svg"
   xmlns:sodipodi="http://sodipodi.sourceforge.net/DTD/sodipodi-0.dtd"
   xmlns:inkscape="http://www.inkscape.org/namespaces/inkscape"
   width="210mm"
   height="297mm"
   viewBox="0 0 744.09448819 1052.3622047"
   id="svg2"
   version="1.1"
   inkscape:version="0.91 r13725"
   inkscape:export-filename="/home/chris/mouse_vector1.png"
   inkscape:export-xdpi="150"
   inkscape:export-ydpi="150"
   sodipodi:docname="minc_volumes.svg">
  <defs
     id="defs4">
    <inkscape:perspective
       sodipodi:type="inkscape:persp3d"
       inkscape:vp_x="-150.13608 : 719.00207 : 1"
       inkscape:vp_y="9.2752577 : 999.95699 : 0"
       inkscape:vp_z="516.76368 : 710.31601 : 1"
       inkscape:persp3d-origin="622.75118 : 343.92351 : 1"
       id="perspective4136" />
  </defs>
  <sodipodi:namedview
     id="base"
     pagecolor="#ffffff"
     bordercolor="#666666"
     borderopacity="1.0"
     inkscape:pageopacity="0.0"
     inkscape:pageshadow="2"
     inkscape:zoom="0.49497475"
     inkscape:cx="322.20693"
     inkscape:cy="737.15214"
     inkscape:document-units="px"
     inkscape:current-layer="layer1"
     showgrid="false"
     inkscape:window-width="1366"
     inkscape:window-height="712"
     inkscape:window-x="0"
     inkscape:window-y="0"
     inkscape:window-maximized="1" />
  <metadata
     id="metadata7">
    <rdf:RDF>
      <cc:Work
         rdf:about="">
        <dc:format>image/svg+xml</dc:format>
        <dc:type
           rdf:resource="http://purl.org/dc/dcmitype/StillImage" />
        <dc:title></dc:title>
      </cc:Work>
    </rdf:RDF>
  </metadata>
  <g
     inkscape:label="Layer 1"
     inkscape:groupmode="layer"
     id="layer1">
    <rect
       style="opacity:1;fill:#7676ff;fill-opacity:1;fill-rule:evenodd;stroke:#3b1ede;stroke-width:0.5;stroke-linejoin:bevel;stroke-miterlimit:10;stroke-dasharray:none;stroke-dashoffset:0;stroke-opacity:1"
       id="rect4926"
       width="481.84277"
       height="77.12693"
       x="61.619305"
       y="395.76306"
       inkscape:export-xdpi="150"
       inkscape:export-ydpi="150" />
    <path
       style="opacity:1;fill:#ffb380;fill-opacity:1;fill-rule:evenodd;stroke:#3b1ede;stroke-width:0.5;stroke-linejoin:bevel;stroke-miterlimit:10;stroke-dasharray:none;stroke-dashoffset:0;stroke-opacity:1"
       d="m 61.619304,160.39752 481.842766,0 0,232.33508 -481.842766,0 z"
       id="rect4891"
       inkscape:connector-curvature="0"
       inkscape:export-xdpi="150"
       inkscape:export-ydpi="150" />
    <path
       inkscape:connector-curvature="0"
       id="path4541-6"
       style="fill:#e9e9ff;fill-opacity:1;fill-rule:evenodd;stroke:none;stroke-width:1px;stroke-linecap:butt;stroke-linejoin:round;stroke-miterlimit:10;stroke-dasharray:none;stroke-dashoffset:0;stroke-opacity:1"
       d="m 233.17798,261.6329 58.56087,4.42063 0.72956,-78.6531 -58.66787,7.11558 z"
       inkscape:export-xdpi="150"
       inkscape:export-ydpi="150" />
    <path
       inkscape:connector-curvature="0"
       id="path4543-1"
       style="fill:#353564;fill-opacity:1;fill-rule:evenodd;stroke:none;stroke-width:1px;stroke-linecap:butt;stroke-linejoin:round;stroke-miterlimit:10;stroke-dasharray:none;stroke-dashoffset:0;stroke-opacity:1"
       d="m 177.25252,264.55313 0.72929,-78.62389 55.81873,8.58676 -0.62256,67.1169 z"
       inkscape:export-xdpi="150"
       inkscape:export-ydpi="150" />
    <path
       inkscape:connector-curvature="0"
       id="path4545-2"
       style="fill:#afafde;fill-opacity:1;fill-rule:evenodd;stroke:none;stroke-width:1px;stroke-linecap:butt;stroke-linejoin:round;stroke-miterlimit:10;stroke-dasharray:none;stroke-dashoffset:0;stroke-opacity:1"
       d="m 177.98181,185.92925 59.23266,-10.37007 55.25394,11.84125 -58.66787,7.11558 z"
       inkscape:export-xdpi="150"
       inkscape:export-ydpi="150" />
    <path
       inkscape:connector-curvature="0"
       id="path4547-1"
       style="fill:#4d4d9f;fill-opacity:1;fill-rule:evenodd;stroke:none;stroke-width:1px;stroke-linecap:butt;stroke-linejoin:round;stroke-miterlimit:10;stroke-dasharray:none;stroke-dashoffset:0;stroke-opacity:1"
       d="m 177.25252,264.55313 59.08136,5.94162 55.40497,-4.44123 -58.56087,-4.42063 z"
       inkscape:export-xdpi="150"
       inkscape:export-ydpi="150" />
    <path
       inkscape:connector-curvature="0"
       id="path4549-2"
       style="fill:#d7d7ff;fill-opacity:1;fill-rule:evenodd;stroke:none;stroke-width:1px;stroke-linecap:butt;stroke-linejoin:round;stroke-miterlimit:10;stroke-dasharray:none;stroke-dashoffset:0;stroke-opacity:1"
       d="m 236.33388,270.49475 0.88059,-94.93558 55.25394,11.84125 -0.72956,78.6531 z"
       inkscape:export-xdpi="150"
       inkscape:export-ydpi="150" />
    <path
       inkscape:connector-curvature="0"
       id="path4551-4"
       style="fill:#8686bf;fill-opacity:1;fill-rule:evenodd;stroke:none;stroke-width:1px;stroke-linecap:butt;stroke-linejoin:round;stroke-miterlimit:10;stroke-dasharray:none;stroke-dashoffset:0;stroke-opacity:1"
       d="m 177.25252,264.55313 59.08136,5.94162 0.88059,-94.93558 -59.23266,10.37007 z"
       inkscape:export-xdpi="150"
       inkscape:export-ydpi="150" />
    <path
       inkscape:connector-curvature="0"
       d="m 253.93836,225.34825 c 2.64337,1.39612 5.74341,-3.86602 6.9288,-11.752 1.18174,-7.88984 1.04201,-13.37129 -1.5993,-14.77125 -2.64337,-1.39711 -7.8285,2.11176 -9.0113,9.99958 -1.18432,7.88498 1.04049,15.12187 3.6818,16.52367 z"
       id="path4300-2"
       inkscape:export-xdpi="150"
       inkscape:export-ydpi="150" />
    <path
       inkscape:connector-curvature="0"
       d="m 252.00595,235.61027 c -0.51659,0 -0.93621,-0.78911 -0.93621,-1.75813 0,-0.34073 0.0662,-0.64422 0.15588,-0.91235 -0.004,0 -0.009,-0.002 -0.0136,-0.002 -0.86791,0 -1.57368,1.32349 -1.57368,2.95452 0,1.63102 0.70479,2.95452 1.57368,2.95452 0.86889,0 1.57422,-1.32148 1.57422,-2.95452 0,-0.31524 -0.0329,-0.61287 -0.0819,-0.89877 -0.17196,0.3699 -0.41749,0.61673 -0.69845,0.61673 z"
       id="path4302-2"
       inkscape:export-xdpi="150"
       inkscape:export-ydpi="150" />
    <path
       inkscape:connector-curvature="0"
       d="m 287.16806,223.43234 c -0.58382,-1.58204 -1.24691,-3.37371 -1.48458,-5.61374 -0.21267,-2.02256 -0.0126,-6.33997 2.26856,-8.19234 l -0.42329,-1.83861 c -2.52399,2.05106 -3.2694,6.84134 -2.89094,10.42147 0.27936,2.65118 1.04147,4.71197 1.6535,6.36848 0.56194,1.52035 1.00612,2.72077 0.89969,3.73087 -0.077,0.73813 -0.47748,1.54685 -1.18637,2.40051 -2.00795,2.41828 -4.52257,1.89327 -6.30232,1.08656 0.0615,-0.75187 0.10009,-1.51331 0.10009,-2.28883 0,-11.48757 -6.94345,-20.80101 -15.50842,-20.80101 -0.68337,0 -1.35378,0.0676 -2.01376,0.1821 -0.16936,2.08912 -0.44828,3.95422 -0.61765,5.0869 -1.16191,7.72719 -4.05812,13.33306 -6.8871,13.33306 -0.3607,0 -0.71828,-0.0921 -1.06228,-0.27214 -1.68376,-0.89474 -3.18031,-3.79376 -3.98206,-7.6519 l -7.66644,26.05777 c -0.18348,-0.139 -0.38204,-0.21932 -0.59319,-0.21932 -0.86791,0 -1.5727,1.32165 -1.5727,2.95468 0,1.63103 0.70479,2.95452 1.57368,2.95452 0.63488,0 1.17861,-0.70895 1.42833,-1.72509 l 20.46321,0.83807 c 0.30855,0.0236 0.61515,0.0627 0.92888,0.0627 0.0766,0 0.15276,-0.0156 0.22883,-0.0174 l 0.3774,0.0174 -0.0188,-0.0411 c 7.21343,-0.36219 13.16531,-7.31705 14.59159,-16.51194 0.86737,0.39355 1.90161,0.72438 2.99219,0.72438 1.36574,0 2.81585,-0.51696 4.11383,-2.08342 0.9905,-1.19237 1.51797,-2.36513 1.65984,-3.69466 0.19597,-1.84431 -0.41918,-3.50669 -1.06977,-5.26799 z m -35.71727,16.95932 c -1.44654,0 -2.62042,-2.20466 -2.62042,-4.92242 0,-2.7196 1.17388,-4.92223 2.62042,-4.92223 1.44654,0 2.62096,2.2028 2.62096,4.92223 0,2.71776 -1.17334,4.92242 -2.62096,4.92242 z"
       id="path4304-6"
       inkscape:export-xdpi="150"
       inkscape:export-ydpi="150" />
    <path
       style="opacity:1;fill:#ff0000;fill-opacity:1;fill-rule:evenodd;stroke:none;stroke-width:1px;stroke-linecap:butt;stroke-linejoin:round;stroke-miterlimit:10;stroke-dasharray:none;stroke-dashoffset:0;stroke-opacity:1"
       d="m 265.49699,230.88853 -5.5405,0.44412 0.0881,-9.49355 5.52539,1.18412 z"
       id="path4160-0-8"
       inkscape:connector-curvature="0"
       inkscape:export-xdpi="150"
       inkscape:export-ydpi="150" />
    <path
       inkscape:connector-curvature="0"
       id="path4541"
       style="fill:#e9e9ff;fill-opacity:1;fill-rule:evenodd;stroke:none;stroke-width:1px;stroke-linecap:butt;stroke-linejoin:round;stroke-miterlimit:10;stroke-dasharray:none;stroke-dashoffset:0;stroke-opacity:1"
       d="m 190.5671,359.07909 58.56087,4.42063 0.72956,-78.6531 -58.66787,7.11558 z"
       inkscape:export-xdpi="150"
       inkscape:export-ydpi="150" />
    <path
       inkscape:connector-curvature="0"
       id="path4543"
       style="fill:#353564;fill-opacity:1;fill-rule:evenodd;stroke:none;stroke-width:1px;stroke-linecap:butt;stroke-linejoin:round;stroke-miterlimit:10;stroke-dasharray:none;stroke-dashoffset:0;stroke-opacity:1"
       d="m 134.64164,361.99933 0.72929,-78.62389 55.81873,8.58676 -0.62256,67.11689 z"
       inkscape:export-xdpi="150"
       inkscape:export-ydpi="150" />
    <path
       inkscape:connector-curvature="0"
       id="path4545"
       style="fill:#afafde;fill-opacity:1;fill-rule:evenodd;stroke:none;stroke-width:1px;stroke-linecap:butt;stroke-linejoin:round;stroke-miterlimit:10;stroke-dasharray:none;stroke-dashoffset:0;stroke-opacity:1"
       d="m 135.37093,283.37544 59.23266,-10.37007 55.25394,11.84125 -58.66787,7.11558 z"
       inkscape:export-xdpi="150"
       inkscape:export-ydpi="150" />
    <path
       inkscape:connector-curvature="0"
       id="path4547"
       style="fill:#4d4d9f;fill-opacity:1;fill-rule:evenodd;stroke:none;stroke-width:1px;stroke-linecap:butt;stroke-linejoin:round;stroke-miterlimit:10;stroke-dasharray:none;stroke-dashoffset:0;stroke-opacity:1"
       d="m 134.64164,361.99933 59.08136,5.94162 55.40497,-4.44123 -58.56087,-4.42063 z"
       inkscape:export-xdpi="150"
       inkscape:export-ydpi="150" />
    <path
       inkscape:connector-curvature="0"
       id="path4549"
       style="fill:#d7d7ff;fill-opacity:1;fill-rule:evenodd;stroke:none;stroke-width:1px;stroke-linecap:butt;stroke-linejoin:round;stroke-miterlimit:10;stroke-dasharray:none;stroke-dashoffset:0;stroke-opacity:1"
       d="m 193.723,367.94095 0.88059,-94.93558 55.25394,11.84125 -0.72956,78.6531 z"
       inkscape:export-xdpi="150"
       inkscape:export-ydpi="150" />
    <path
       inkscape:connector-curvature="0"
       id="path4551"
       style="fill:#8686bf;fill-opacity:1;fill-rule:evenodd;stroke:none;stroke-width:1px;stroke-linecap:butt;stroke-linejoin:round;stroke-miterlimit:10;stroke-dasharray:none;stroke-dashoffset:0;stroke-opacity:1"
       d="m 134.64164,361.99933 59.08136,5.94162 0.88059,-94.93558 -59.23266,10.37007 z"
       inkscape:export-xdpi="150"
       inkscape:export-ydpi="150" />
    <path
       inkscape:connector-curvature="0"
       d="m 211.32748,322.79445 c 2.64337,1.39611 5.74341,-3.86602 6.9288,-11.752 1.18174,-7.88984 1.04201,-13.37129 -1.5993,-14.77125 -2.64337,-1.39711 -7.8285,2.11176 -9.0113,9.99958 -1.18432,7.88498 1.04049,15.12187 3.6818,16.52367 z"
       id="path4300"
       inkscape:export-xdpi="150"
       inkscape:export-ydpi="150" />
    <path
       inkscape:connector-curvature="0"
       d="m 209.39507,333.05646 c -0.51659,0 -0.93621,-0.7891 -0.93621,-1.75812 0,-0.34073 0.0662,-0.64423 0.15588,-0.91235 -0.004,0 -0.009,-0.002 -0.0136,-0.002 -0.86791,0 -1.57368,1.32349 -1.57368,2.95452 0,1.63102 0.70479,2.95451 1.57368,2.95451 0.86889,0 1.57422,-1.32148 1.57422,-2.95451 0,-0.31524 -0.0329,-0.61287 -0.0819,-0.89877 -0.17196,0.3699 -0.41749,0.61673 -0.69845,0.61673 z"
       id="path4302"
       inkscape:export-xdpi="150"
       inkscape:export-ydpi="150" />
    <path
       inkscape:connector-curvature="0"
       d="m 244.55718,320.87854 c -0.58382,-1.58205 -1.24691,-3.37371 -1.48458,-5.61375 -0.21267,-2.02255 -0.0126,-6.33997 2.26856,-8.19233 l -0.42329,-1.83861 c -2.52399,2.05106 -3.2694,6.84134 -2.89094,10.42147 0.27936,2.65118 1.04147,4.71197 1.6535,6.36848 0.56194,1.52035 1.00612,2.72077 0.89969,3.73087 -0.077,0.73813 -0.47748,1.54685 -1.18637,2.40051 -2.00795,2.41828 -4.52257,1.89327 -6.30232,1.08656 0.0615,-0.75187 0.10009,-1.51331 0.10009,-2.28883 0,-11.48757 -6.94345,-20.80101 -15.50842,-20.80101 -0.68337,0 -1.35378,0.0676 -2.01376,0.1821 -0.16936,2.08912 -0.44828,3.95422 -0.61765,5.0869 -1.16191,7.72719 -4.05812,13.33306 -6.8871,13.33306 -0.3607,0 -0.71828,-0.0921 -1.06228,-0.27214 -1.68376,-0.89474 -3.18031,-3.79376 -3.98206,-7.6519 l -7.66644,26.05777 c -0.18348,-0.139 -0.38204,-0.21932 -0.59319,-0.21932 -0.86791,0 -1.5727,1.32165 -1.5727,2.95468 0,1.63103 0.70479,2.95452 1.57368,2.95452 0.63488,0 1.17861,-0.70895 1.42833,-1.72509 l 20.46321,0.83807 c 0.30855,0.0236 0.61515,0.0627 0.92888,0.0627 0.0766,0 0.15276,-0.0156 0.22883,-0.0174 l 0.3774,0.0174 -0.0188,-0.0411 c 7.21343,-0.36219 13.16531,-7.31705 14.59159,-16.51194 0.86737,0.39355 1.90161,0.72438 2.99219,0.72438 1.36574,0 2.81585,-0.51696 4.11383,-2.08342 0.9905,-1.19237 1.51797,-2.36513 1.65984,-3.69466 0.19597,-1.84431 -0.41918,-3.50669 -1.06977,-5.268 z m -35.71727,16.95931 c -1.44654,0 -2.62042,-2.20466 -2.62042,-4.92241 0,-2.7196 1.17388,-4.92224 2.62042,-4.92224 1.44654,0 2.62096,2.20281 2.62096,4.92224 0,2.71775 -1.17334,4.92241 -2.62096,4.92241 z"
       id="path4304"
       inkscape:export-xdpi="150"
       inkscape:export-ydpi="150" />
    <path
       transform="matrix(0.1,0,0,0.1,197.97331,291.98476)"
       sodipodi:type="inkscape:box3dside"
       id="path4160-0"
       style="opacity:1;fill:#ff0000;fill-opacity:1;fill-rule:evenodd;stroke:none;stroke-width:1px;stroke-linecap:butt;stroke-linejoin:round;stroke-miterlimit:10;stroke-dasharray:none;stroke-dashoffset:0;stroke-opacity:1"
       inkscape:box3dsidetype="14"
       d="m 193.723,367.94095 0.88059,-94.93558 55.25394,11.84125 -0.72956,78.6531 z"
       points="194.60359,273.00537 249.85753,284.84662 249.12797,363.49972 193.723,367.94095 "
       inkscape:export-xdpi="150"
       inkscape:export-ydpi="150" />
    <path
       inkscape:connector-curvature="0"
       id="path4541-4"
       style="fill:#e9e9ff;fill-opacity:1;fill-rule:evenodd;stroke:none;stroke-width:1px;stroke-linecap:butt;stroke-linejoin:round;stroke-miterlimit:10;stroke-dasharray:none;stroke-dashoffset:0;stroke-opacity:1"
       d="m 360.96227,261.12782 58.56087,4.42063 0.72956,-78.6531 -58.66787,7.11558 z"
       inkscape:export-xdpi="150"
       inkscape:export-ydpi="150" />
    <path
       inkscape:connector-curvature="0"
       id="path4543-7"
       style="fill:#353564;fill-opacity:1;fill-rule:evenodd;stroke:none;stroke-width:1px;stroke-linecap:butt;stroke-linejoin:round;stroke-miterlimit:10;stroke-dasharray:none;stroke-dashoffset:0;stroke-opacity:1"
       d="m 305.03681,264.04806 0.72929,-78.62389 55.81873,8.58676 -0.62256,67.11689 z"
       inkscape:export-xdpi="150"
       inkscape:export-ydpi="150" />
    <path
       inkscape:connector-curvature="0"
       id="path4545-8"
       style="fill:#afafde;fill-opacity:1;fill-rule:evenodd;stroke:none;stroke-width:1px;stroke-linecap:butt;stroke-linejoin:round;stroke-miterlimit:10;stroke-dasharray:none;stroke-dashoffset:0;stroke-opacity:1"
       d="m 305.7661,185.42417 59.23266,-10.37007 55.25394,11.84125 -58.66787,7.11558 z"
       inkscape:export-xdpi="150"
       inkscape:export-ydpi="150" />
    <path
       inkscape:connector-curvature="0"
       id="path4547-2"
       style="fill:#4d4d9f;fill-opacity:1;fill-rule:evenodd;stroke:none;stroke-width:1px;stroke-linecap:butt;stroke-linejoin:round;stroke-miterlimit:10;stroke-dasharray:none;stroke-dashoffset:0;stroke-opacity:1"
       d="m 305.03681,264.04806 59.08136,5.94162 55.40497,-4.44123 -58.56087,-4.42063 z"
       inkscape:export-xdpi="150"
       inkscape:export-ydpi="150" />
    <path
       inkscape:connector-curvature="0"
       id="path4549-9"
       style="fill:#d7d7ff;fill-opacity:1;fill-rule:evenodd;stroke:none;stroke-width:1px;stroke-linecap:butt;stroke-linejoin:round;stroke-miterlimit:10;stroke-dasharray:none;stroke-dashoffset:0;stroke-opacity:1"
       d="m 364.11817,269.98968 0.88059,-94.93558 55.25394,11.84125 -0.72956,78.6531 z"
       inkscape:export-xdpi="150"
       inkscape:export-ydpi="150" />
    <path
       inkscape:connector-curvature="0"
       id="path4551-6"
       style="fill:#8686bf;fill-opacity:1;fill-rule:evenodd;stroke:none;stroke-width:1px;stroke-linecap:butt;stroke-linejoin:round;stroke-miterlimit:10;stroke-dasharray:none;stroke-dashoffset:0;stroke-opacity:1"
       d="m 305.03681,264.04806 59.08136,5.94162 0.88059,-94.93558 -59.23266,10.37007 z"
       inkscape:export-xdpi="150"
       inkscape:export-ydpi="150" />
    <path
       inkscape:connector-curvature="0"
       d="m 381.72265,224.84318 c 2.64337,1.39611 5.74341,-3.86602 6.9288,-11.752 1.18174,-7.88984 1.04201,-13.37129 -1.5993,-14.77125 -2.64337,-1.39711 -7.8285,2.11176 -9.0113,9.99958 -1.18432,7.88498 1.04049,15.12187 3.6818,16.52367 z"
       id="path4300-20"
       inkscape:export-xdpi="150"
       inkscape:export-ydpi="150" />
    <path
       inkscape:connector-curvature="0"
       d="m 379.79024,235.10519 c -0.51659,0 -0.93621,-0.7891 -0.93621,-1.75812 0,-0.34073 0.0662,-0.64423 0.15588,-0.91235 -0.004,0 -0.009,-0.002 -0.0136,-0.002 -0.86791,0 -1.57368,1.32349 -1.57368,2.95452 0,1.63102 0.70479,2.95451 1.57368,2.95451 0.86889,0 1.57422,-1.32148 1.57422,-2.95451 0,-0.31524 -0.0329,-0.61287 -0.0819,-0.89877 -0.17196,0.3699 -0.41749,0.61673 -0.69845,0.61673 z"
       id="path4302-25"
       inkscape:export-xdpi="150"
       inkscape:export-ydpi="150" />
    <path
       inkscape:connector-curvature="0"
       d="m 414.95235,222.92727 c -0.58382,-1.58205 -1.24691,-3.37371 -1.48458,-5.61375 -0.21267,-2.02255 -0.0126,-6.33997 2.26856,-8.19233 l -0.42329,-1.83861 c -2.52399,2.05106 -3.2694,6.84134 -2.89094,10.42147 0.27936,2.65118 1.04147,4.71197 1.6535,6.36848 0.56194,1.52035 1.00612,2.72077 0.89969,3.73087 -0.077,0.73813 -0.47748,1.54685 -1.18637,2.40051 -2.00795,2.41828 -4.52257,1.89327 -6.30232,1.08656 0.0615,-0.75187 0.10009,-1.51331 0.10009,-2.28883 0,-11.48757 -6.94345,-20.80101 -15.50842,-20.80101 -0.68337,0 -1.35378,0.0676 -2.01376,0.1821 -0.16936,2.08912 -0.44828,3.95422 -0.61765,5.0869 -1.16191,7.72719 -4.05812,13.33306 -6.8871,13.33306 -0.3607,0 -0.71828,-0.0921 -1.06228,-0.27214 -1.68376,-0.89474 -3.18031,-3.79376 -3.98206,-7.6519 l -7.66644,26.05777 c -0.18348,-0.139 -0.38204,-0.21932 -0.59319,-0.21932 -0.86791,0 -1.5727,1.32165 -1.5727,2.95468 0,1.63103 0.70479,2.95452 1.57368,2.95452 0.63488,0 1.17861,-0.70895 1.42833,-1.72509 l 20.46321,0.83807 c 0.30855,0.0236 0.61515,0.0627 0.92888,0.0627 0.0766,0 0.15276,-0.0156 0.22883,-0.0174 l 0.3774,0.0174 -0.0188,-0.0411 c 7.21343,-0.36219 13.16531,-7.31705 14.59159,-16.51194 0.86737,0.39355 1.90161,0.72438 2.99219,0.72438 1.36574,0 2.81585,-0.51696 4.11383,-2.08342 0.9905,-1.19237 1.51797,-2.36513 1.65984,-3.69466 0.19597,-1.84431 -0.41918,-3.50669 -1.06977,-5.268 z m -35.71727,16.95931 c -1.44654,0 -2.62042,-2.20466 -2.62042,-4.92241 0,-2.7196 1.17388,-4.92224 2.62042,-4.92224 1.44654,0 2.62096,2.20281 2.62096,4.92224 0,2.71775 -1.17334,4.92241 -2.62096,4.92241 z"
       id="path4304-1"
       inkscape:export-xdpi="150"
       inkscape:export-ydpi="150" />
    <path
       transform="matrix(0.1,0,0,0.1,368.36848,194.03349)"
       sodipodi:type="inkscape:box3dside"
       id="path4160-0-9"
       style="opacity:1;fill:#ff0000;fill-opacity:1;fill-rule:evenodd;stroke:none;stroke-width:1px;stroke-linecap:butt;stroke-linejoin:round;stroke-miterlimit:10;stroke-dasharray:none;stroke-dashoffset:0;stroke-opacity:1"
       inkscape:box3dsidetype="14"
       d="m 249.12797,363.49972 -55.40497,4.44123 0.88059,-94.93558 55.25394,11.84125 z"
       points="193.723,367.94095 194.60359,273.00537 249.85753,284.84662 249.12797,363.49972 "
       inkscape:export-xdpi="150"
       inkscape:export-ydpi="150" />
    <path
       inkscape:connector-curvature="0"
       id="path4541-8"
       style="fill:#e9e9ff;fill-opacity:1;fill-rule:evenodd;stroke:none;stroke-width:1px;stroke-linecap:butt;stroke-linejoin:round;stroke-miterlimit:10;stroke-dasharray:none;stroke-dashoffset:0;stroke-opacity:1"
       d="m 317.02064,364.16338 58.56087,4.42063 0.72956,-78.6531 -58.66787,7.11558 z"
       inkscape:export-xdpi="150"
       inkscape:export-ydpi="150" />
    <path
       inkscape:connector-curvature="0"
       id="path4543-4"
       style="fill:#353564;fill-opacity:1;fill-rule:evenodd;stroke:none;stroke-width:1px;stroke-linecap:butt;stroke-linejoin:round;stroke-miterlimit:10;stroke-dasharray:none;stroke-dashoffset:0;stroke-opacity:1"
       d="m 261.09518,367.08362 0.72929,-78.62389 55.81873,8.58676 -0.62256,67.11689 z"
       inkscape:export-xdpi="150"
       inkscape:export-ydpi="150" />
    <path
       inkscape:connector-curvature="0"
       id="path4545-0"
       style="fill:#afafde;fill-opacity:1;fill-rule:evenodd;stroke:none;stroke-width:1px;stroke-linecap:butt;stroke-linejoin:round;stroke-miterlimit:10;stroke-dasharray:none;stroke-dashoffset:0;stroke-opacity:1"
       d="m 261.82447,288.45973 59.23266,-10.37007 55.25394,11.84125 -58.66787,7.11558 z"
       inkscape:export-xdpi="150"
       inkscape:export-ydpi="150" />
    <path
       inkscape:connector-curvature="0"
       id="path4547-8"
       style="fill:#4d4d9f;fill-opacity:1;fill-rule:evenodd;stroke:none;stroke-width:1px;stroke-linecap:butt;stroke-linejoin:round;stroke-miterlimit:10;stroke-dasharray:none;stroke-dashoffset:0;stroke-opacity:1"
       d="m 261.09518,367.08362 59.08136,5.94162 55.40497,-4.44123 -58.56087,-4.42063 z"
       inkscape:export-xdpi="150"
       inkscape:export-ydpi="150" />
    <path
       inkscape:connector-curvature="0"
       id="path4549-29"
       style="fill:#d7d7ff;fill-opacity:1;fill-rule:evenodd;stroke:none;stroke-width:1px;stroke-linecap:butt;stroke-linejoin:round;stroke-miterlimit:10;stroke-dasharray:none;stroke-dashoffset:0;stroke-opacity:1"
       d="m 320.17654,373.02524 0.88059,-94.93558 55.25394,11.84125 -0.72956,78.6531 z"
       inkscape:export-xdpi="150"
       inkscape:export-ydpi="150" />
    <path
       inkscape:connector-curvature="0"
       id="path4551-9"
       style="fill:#8686bf;fill-opacity:1;fill-rule:evenodd;stroke:none;stroke-width:1px;stroke-linecap:butt;stroke-linejoin:round;stroke-miterlimit:10;stroke-dasharray:none;stroke-dashoffset:0;stroke-opacity:1"
       d="m 261.09518,367.08362 59.08136,5.94162 0.88059,-94.93558 -59.23266,10.37007 z"
       inkscape:export-xdpi="150"
       inkscape:export-ydpi="150" />
    <path
       inkscape:connector-curvature="0"
       d="m 337.78102,327.87874 c 2.64337,1.39611 5.74341,-3.86602 6.9288,-11.752 1.18174,-7.88984 1.04201,-13.37129 -1.5993,-14.77125 -2.64337,-1.39711 -7.8285,2.11176 -9.0113,9.99958 -1.18432,7.88498 1.04049,15.12187 3.6818,16.52367 z"
       id="path4300-4"
       inkscape:export-xdpi="150"
       inkscape:export-ydpi="150" />
    <path
       inkscape:connector-curvature="0"
       d="m 335.84861,338.14075 c -0.51659,0 -0.93621,-0.7891 -0.93621,-1.75812 0,-0.34073 0.0662,-0.64423 0.15588,-0.91235 -0.004,0 -0.009,-0.002 -0.0136,-0.002 -0.86791,0 -1.57368,1.32349 -1.57368,2.95452 0,1.63102 0.70479,2.95451 1.57368,2.95451 0.86889,0 1.57422,-1.32148 1.57422,-2.95451 0,-0.31524 -0.0329,-0.61287 -0.0819,-0.89877 -0.17196,0.3699 -0.41749,0.61673 -0.69845,0.61673 z"
       id="path4302-0"
       inkscape:export-xdpi="150"
       inkscape:export-ydpi="150" />
    <path
       inkscape:connector-curvature="0"
       d="m 371.01072,325.96283 c -0.58382,-1.58205 -1.24691,-3.37371 -1.48458,-5.61375 -0.21267,-2.02255 -0.0126,-6.33997 2.26856,-8.19233 l -0.42329,-1.83861 c -2.52399,2.05106 -3.2694,6.84134 -2.89094,10.42147 0.27936,2.65118 1.04147,4.71197 1.6535,6.36848 0.56194,1.52035 1.00612,2.72077 0.89969,3.73087 -0.077,0.73813 -0.47748,1.54685 -1.18637,2.40051 -2.00795,2.41828 -4.52257,1.89327 -6.30232,1.08656 0.0615,-0.75187 0.10009,-1.51331 0.10009,-2.28883 0,-11.48757 -6.94345,-20.80101 -15.50842,-20.80101 -0.68337,0 -1.35378,0.0676 -2.01376,0.1821 -0.16936,2.08912 -0.44828,3.95422 -0.61765,5.0869 -1.16191,7.72719 -4.05812,13.33306 -6.8871,13.33306 -0.3607,0 -0.71828,-0.0921 -1.06228,-0.27214 -1.68376,-0.89474 -3.18031,-3.79376 -3.98206,-7.6519 l -7.66644,26.05777 c -0.18348,-0.139 -0.38204,-0.21932 -0.59319,-0.21932 -0.86791,0 -1.5727,1.32165 -1.5727,2.95468 0,1.63103 0.70479,2.95452 1.57368,2.95452 0.63488,0 1.17861,-0.70895 1.42833,-1.72509 l 20.46321,0.83807 c 0.30855,0.0236 0.61515,0.0627 0.92888,0.0627 0.0766,0 0.15276,-0.0156 0.22883,-0.0174 l 0.3774,0.0174 -0.0188,-0.0411 c 7.21343,-0.36219 13.16531,-7.31705 14.59159,-16.51194 0.86737,0.39355 1.90161,0.72438 2.99219,0.72438 1.36574,0 2.81585,-0.51696 4.11383,-2.08342 0.9905,-1.19237 1.51797,-2.36513 1.65984,-3.69466 0.19597,-1.84431 -0.41918,-3.50669 -1.06977,-5.268 z m -35.71727,16.95931 c -1.44654,0 -2.62042,-2.20466 -2.62042,-4.92241 0,-2.7196 1.17388,-4.92224 2.62042,-4.92224 1.44654,0 2.62096,2.20281 2.62096,4.92224 0,2.71775 -1.17334,4.92241 -2.62096,4.92241 z"
       id="path4304-4"
       inkscape:export-xdpi="150"
       inkscape:export-ydpi="150" />
    <path
       transform="matrix(0.1,0,0,0.1,324.42685,297.06905)"
       sodipodi:type="inkscape:box3dside"
       id="path4160-0-0"
       style="opacity:1;fill:#ff0000;fill-opacity:1;fill-rule:evenodd;stroke:none;stroke-width:1px;stroke-linecap:butt;stroke-linejoin:round;stroke-miterlimit:10;stroke-dasharray:none;stroke-dashoffset:0;stroke-opacity:1"
       inkscape:box3dsidetype="14"
       d="m 249.85753,284.84662 -0.72956,78.6531 -55.40497,4.44123 0.88059,-94.93558 z"
       points="249.12797,363.49972 193.723,367.94095 194.60359,273.00537 249.85753,284.84662 "
       inkscape:export-xdpi="150"
       inkscape:export-ydpi="150" />
    <path
       inkscape:connector-curvature="0"
       id="path4541-60"
       style="fill:#e9e9ff;fill-opacity:1;fill-rule:evenodd;stroke:none;stroke-width:1px;stroke-linecap:butt;stroke-linejoin:round;stroke-miterlimit:10;stroke-dasharray:none;stroke-dashoffset:0;stroke-opacity:1"
       d="m 445.31002,363.15323 58.56087,4.42063 0.72956,-78.6531 -58.66787,7.11558 z"
       inkscape:export-xdpi="150"
       inkscape:export-ydpi="150" />
    <path
       inkscape:connector-curvature="0"
       id="path4543-72"
       style="fill:#353564;fill-opacity:1;fill-rule:evenodd;stroke:none;stroke-width:1px;stroke-linecap:butt;stroke-linejoin:round;stroke-miterlimit:10;stroke-dasharray:none;stroke-dashoffset:0;stroke-opacity:1"
       d="m 389.38456,366.07347 0.72929,-78.62389 55.81873,8.58676 -0.62256,67.11689 z"
       inkscape:export-xdpi="150"
       inkscape:export-ydpi="150" />
    <path
       inkscape:connector-curvature="0"
       id="path4545-6"
       style="fill:#afafde;fill-opacity:1;fill-rule:evenodd;stroke:none;stroke-width:1px;stroke-linecap:butt;stroke-linejoin:round;stroke-miterlimit:10;stroke-dasharray:none;stroke-dashoffset:0;stroke-opacity:1"
       d="m 390.11385,287.44958 59.23266,-10.37007 55.25394,11.84125 -58.66787,7.11558 z"
       inkscape:export-xdpi="150"
       inkscape:export-ydpi="150" />
    <path
       inkscape:connector-curvature="0"
       id="path4547-6"
       style="fill:#4d4d9f;fill-opacity:1;fill-rule:evenodd;stroke:none;stroke-width:1px;stroke-linecap:butt;stroke-linejoin:round;stroke-miterlimit:10;stroke-dasharray:none;stroke-dashoffset:0;stroke-opacity:1"
       d="m 389.38456,366.07347 59.08136,5.94162 55.40497,-4.44123 -58.56087,-4.42063 z"
       inkscape:export-xdpi="150"
       inkscape:export-ydpi="150" />
    <path
       inkscape:connector-curvature="0"
       id="path4549-1"
       style="fill:#d7d7ff;fill-opacity:1;fill-rule:evenodd;stroke:none;stroke-width:1px;stroke-linecap:butt;stroke-linejoin:round;stroke-miterlimit:10;stroke-dasharray:none;stroke-dashoffset:0;stroke-opacity:1"
       d="m 448.46592,372.01509 0.88059,-94.93558 55.25394,11.84125 -0.72956,78.6531 z"
       inkscape:export-xdpi="150"
       inkscape:export-ydpi="150" />
    <path
       inkscape:connector-curvature="0"
       id="path4551-95"
       style="fill:#8686bf;fill-opacity:1;fill-rule:evenodd;stroke:none;stroke-width:1px;stroke-linecap:butt;stroke-linejoin:round;stroke-miterlimit:10;stroke-dasharray:none;stroke-dashoffset:0;stroke-opacity:1"
       d="m 389.38456,366.07347 59.08136,5.94162 0.88059,-94.93558 -59.23266,10.37007 z"
       inkscape:export-xdpi="150"
       inkscape:export-ydpi="150" />
    <path
       inkscape:connector-curvature="0"
       d="m 466.0704,326.86859 c 2.64337,1.39611 5.74341,-3.86602 6.9288,-11.752 1.18174,-7.88984 1.04201,-13.37129 -1.5993,-14.77125 -2.64337,-1.39711 -7.8285,2.11176 -9.0113,9.99958 -1.18432,7.88498 1.04049,15.12187 3.6818,16.52367 z"
       id="path4300-9"
       inkscape:export-xdpi="150"
       inkscape:export-ydpi="150" />
    <path
       inkscape:connector-curvature="0"
       d="m 464.13799,337.1306 c -0.51659,0 -0.93621,-0.7891 -0.93621,-1.75812 0,-0.34073 0.0662,-0.64423 0.15588,-0.91235 -0.004,0 -0.009,-0.002 -0.0136,-0.002 -0.86791,0 -1.57368,1.32349 -1.57368,2.95452 0,1.63102 0.70479,2.95451 1.57368,2.95451 0.86889,0 1.57422,-1.32148 1.57422,-2.95451 0,-0.31524 -0.0329,-0.61287 -0.0819,-0.89877 -0.17196,0.3699 -0.41749,0.61673 -0.69845,0.61673 z"
       id="path4302-3"
       inkscape:export-xdpi="150"
       inkscape:export-ydpi="150" />
    <path
       inkscape:connector-curvature="0"
       d="m 499.3001,324.95268 c -0.58382,-1.58205 -1.24691,-3.37371 -1.48458,-5.61375 -0.21267,-2.02255 -0.0126,-6.33997 2.26856,-8.19233 l -0.42329,-1.83861 c -2.52399,2.05106 -3.2694,6.84134 -2.89094,10.42147 0.27936,2.65118 1.04147,4.71197 1.6535,6.36848 0.56194,1.52035 1.00612,2.72077 0.89969,3.73087 -0.077,0.73813 -0.47748,1.54685 -1.18637,2.40051 -2.00795,2.41828 -4.52257,1.89327 -6.30232,1.08656 0.0615,-0.75187 0.10009,-1.51331 0.10009,-2.28883 0,-11.48757 -6.94345,-20.80101 -15.50842,-20.80101 -0.68337,0 -1.35378,0.0676 -2.01376,0.1821 -0.16936,2.08912 -0.44828,3.95422 -0.61765,5.0869 -1.16191,7.72719 -4.05812,13.33306 -6.8871,13.33306 -0.3607,0 -0.71828,-0.0921 -1.06228,-0.27214 -1.68376,-0.89474 -3.18031,-3.79376 -3.98206,-7.6519 l -7.66644,26.05777 c -0.18348,-0.139 -0.38204,-0.21932 -0.59319,-0.21932 -0.86791,0 -1.5727,1.32165 -1.5727,2.95468 0,1.63103 0.70479,2.95452 1.57368,2.95452 0.63488,0 1.17861,-0.70895 1.42833,-1.72509 l 20.46321,0.83807 c 0.30855,0.0236 0.61515,0.0627 0.92888,0.0627 0.0766,0 0.15276,-0.0156 0.22883,-0.0174 l 0.3774,0.0174 -0.0188,-0.0411 c 7.21343,-0.36219 13.16531,-7.31705 14.59159,-16.51194 0.86737,0.39355 1.90161,0.72438 2.99219,0.72438 1.36574,0 2.81585,-0.51696 4.11383,-2.08342 0.9905,-1.19237 1.51797,-2.36513 1.65984,-3.69466 0.19597,-1.84431 -0.41918,-3.50669 -1.06977,-5.268 z m -35.71727,16.95931 c -1.44654,0 -2.62042,-2.20466 -2.62042,-4.92241 0,-2.7196 1.17388,-4.92224 2.62042,-4.92224 1.44654,0 2.62096,2.20281 2.62096,4.92224 0,2.71775 -1.17334,4.92241 -2.62096,4.92241 z"
       id="path4304-7"
       inkscape:export-xdpi="150"
       inkscape:export-ydpi="150" />
    <path
       transform="matrix(0.1,0,0,0.1,452.71623,296.0589)"
       sodipodi:type="inkscape:box3dside"
       id="path4160-0-3"
       style="opacity:1;fill:#ff0000;fill-opacity:1;fill-rule:evenodd;stroke:none;stroke-width:1px;stroke-linecap:butt;stroke-linejoin:round;stroke-miterlimit:10;stroke-dasharray:none;stroke-dashoffset:0;stroke-opacity:1"
       inkscape:box3dsidetype="14"
       d="m 249.85753,284.84662 -0.72956,78.6531 -55.40497,4.44123 0.88059,-94.93558 z"
       points="249.12797,363.49972 193.723,367.94095 194.60359,273.00537 249.85753,284.84662 "
       inkscape:export-xdpi="150"
       inkscape:export-ydpi="150" />
    <flowRoot
       xml:space="preserve"
       id="flowRoot4723"
       style="font-style:normal;font-weight:normal;font-size:25px;line-height:125%;font-family:sans-serif;letter-spacing:0px;word-spacing:0px;baseline-shift:baseline;fill:#000000;fill-opacity:1;stroke:none;stroke-width:1px;stroke-linecap:butt;stroke-linejoin:miter;stroke-opacity:1"
       transform="translate(-46.957226,11.790069)"
       inkscape:export-xdpi="150"
       inkscape:export-ydpi="150"><flowRegion
         id="flowRegion4725"><rect
           id="rect4727"
           width="323.75391"
           height="41.921326"
           x="204.55589"
           y="401.31888"
           style="font-size:25px"
           ry="0" /></flowRegion><flowPara
         id="flowPara4729">V<flowSpan
   style="font-size:64.99999762%;baseline-shift:sub"
   id="flowSpan4745">ijk+1</flowSpan> ={m<flowSpan
   id="flowSpan4743"
   style="font-size:25px;baseline-shift:sub">1</flowSpan><flowSpan
   id="flowSpan4731"
   style="font-size:25px">, m<flowSpan
   style="font-size:25px;baseline-shift:sub"
   id="flowSpan4737">2</flowSpan>, ... , m<flowSpan
   style="font-size:25px;baseline-shift:sub"
   id="flowSpan4735">N</flowSpan>} </flowSpan></flowPara></flowRoot>    <flowRoot
       xml:space="preserve"
       id="flowRoot4918"
       style="font-style:normal;font-weight:bold;font-size:22.5px;line-height:125%;font-family:sans-serif;letter-spacing:0px;word-spacing:0px;fill:#000000;fill-opacity:1;stroke:none;stroke-width:1px;stroke-linecap:butt;stroke-linejoin:miter;stroke-opacity:1;-inkscape-font-specification:'sans-serif Bold';font-stretch:normal;font-variant:normal;"
       inkscape:export-xdpi="150"
       inkscape:export-ydpi="150"><flowRegion
         id="flowRegion4920"><rect
           id="rect4922"
           width="98.994949"
           height="40.406101"
           x="65.659912"
           y="180.60056"
           style="font-size:22.5px;-inkscape-font-specification:'sans-serif Bold';font-family:sans-serif;font-weight:bold;font-style:normal;font-stretch:normal;font-variant:normal;" /></flowRegion><flowPara
         id="flowPara4924">Disk</flowPara></flowRoot>    <flowRoot
       xml:space="preserve"
       id="flowRoot4928"
       style="font-style:normal;font-weight:normal;font-size:10px;line-height:125%;font-family:sans-serif;letter-spacing:0px;word-spacing:0px;fill:#000000;fill-opacity:1;stroke:none;stroke-width:1px;stroke-linecap:butt;stroke-linejoin:miter;stroke-opacity:1"
       inkscape:export-xdpi="150"
       inkscape:export-ydpi="150"><flowRegion
         id="flowRegion4930"><rect
           id="rect4932"
           width="43.436558"
           height="48.487324"
           x="74.751289"
           y="403.84427" /></flowRegion><flowPara
         id="flowPara4934"
         style="font-size:22.5px;-inkscape-font-specification:'sans-serif Bold';font-family:sans-serif;font-weight:bold;font-style:normal;font-stretch:normal;font-variant:normal">R</flowPara></flowRoot>    <path
       style="opacity:1;fill:#ffb380;fill-opacity:1;fill-rule:evenodd;stroke:#3b1ede;stroke-width:0.5;stroke-linejoin:bevel;stroke-miterlimit:10;stroke-dasharray:none;stroke-dashoffset:0;stroke-opacity:1"
       d="m 74.246208,530.11334 277.791952,0 0,129.29952 -277.791952,0 z"
       id="rect4891-9"
       inkscape:connector-curvature="0"
       inkscape:export-xdpi="150"
       inkscape:export-ydpi="150" />
    <path
       inkscape:connector-curvature="0"
       id="path4541-6-8"
       style="fill:#e9e9ff;fill-opacity:1;fill-rule:evenodd;stroke:none;stroke-width:1px;stroke-linecap:butt;stroke-linejoin:round;stroke-miterlimit:10;stroke-dasharray:none;stroke-dashoffset:0;stroke-opacity:1"
       d="m 245.80489,631.34872 58.56087,4.42063 0.72956,-78.6531 -58.66787,7.11558 z"
       inkscape:export-xdpi="150"
       inkscape:export-ydpi="150" />
    <path
       inkscape:connector-curvature="0"
       id="path4543-1-2"
       style="fill:#353564;fill-opacity:1;fill-rule:evenodd;stroke:none;stroke-width:1px;stroke-linecap:butt;stroke-linejoin:round;stroke-miterlimit:10;stroke-dasharray:none;stroke-dashoffset:0;stroke-opacity:1"
       d="m 189.87943,634.26895 0.72929,-78.62389 55.81873,8.58676 -0.62256,67.1169 z"
       inkscape:export-xdpi="150"
       inkscape:export-ydpi="150" />
    <path
       inkscape:connector-curvature="0"
       id="path4545-2-4"
       style="fill:#afafde;fill-opacity:1;fill-rule:evenodd;stroke:none;stroke-width:1px;stroke-linecap:butt;stroke-linejoin:round;stroke-miterlimit:10;stroke-dasharray:none;stroke-dashoffset:0;stroke-opacity:1"
       d="m 190.60872,555.64507 59.23266,-10.37007 55.25394,11.84125 -58.66787,7.11558 z"
       inkscape:export-xdpi="150"
       inkscape:export-ydpi="150" />
    <path
       inkscape:connector-curvature="0"
       id="path4547-1-6"
       style="fill:#4d4d9f;fill-opacity:1;fill-rule:evenodd;stroke:none;stroke-width:1px;stroke-linecap:butt;stroke-linejoin:round;stroke-miterlimit:10;stroke-dasharray:none;stroke-dashoffset:0;stroke-opacity:1"
       d="m 189.87943,634.26895 59.08136,5.94162 55.40497,-4.44123 -58.56087,-4.42063 z"
       inkscape:export-xdpi="150"
       inkscape:export-ydpi="150" />
    <path
       inkscape:connector-curvature="0"
       id="path4549-2-3"
       style="fill:#d7d7ff;fill-opacity:1;fill-rule:evenodd;stroke:none;stroke-width:1px;stroke-linecap:butt;stroke-linejoin:round;stroke-miterlimit:10;stroke-dasharray:none;stroke-dashoffset:0;stroke-opacity:1"
       d="m 248.96079,640.21057 0.88059,-94.93558 55.25394,11.84125 -0.72956,78.6531 z"
       inkscape:export-xdpi="150"
       inkscape:export-ydpi="150" />
    <path
       inkscape:connector-curvature="0"
       id="path4551-4-1"
       style="fill:#8686bf;fill-opacity:1;fill-rule:evenodd;stroke:none;stroke-width:1px;stroke-linecap:butt;stroke-linejoin:round;stroke-miterlimit:10;stroke-dasharray:none;stroke-dashoffset:0;stroke-opacity:1"
       d="m 189.87943,634.26895 59.08136,5.94162 0.88059,-94.93558 -59.23266,10.37007 z"
       inkscape:export-xdpi="150"
       inkscape:export-ydpi="150" />
    <path
       inkscape:connector-curvature="0"
       d="m 266.56527,595.06407 c 2.64337,1.39612 5.74341,-3.86602 6.9288,-11.752 1.18174,-7.88984 1.04201,-13.37129 -1.5993,-14.77125 -2.64337,-1.39711 -7.8285,2.11176 -9.0113,9.99958 -1.18432,7.88498 1.04049,15.12187 3.6818,16.52367 z"
       id="path4300-2-6"
       inkscape:export-xdpi="150"
       inkscape:export-ydpi="150" />
    <path
       inkscape:connector-curvature="0"
       d="m 264.63286,605.32609 c -0.51659,0 -0.93621,-0.78911 -0.93621,-1.75813 0,-0.34073 0.0662,-0.64422 0.15588,-0.91235 -0.004,0 -0.009,-0.002 -0.0136,-0.002 -0.86791,0 -1.57368,1.32349 -1.57368,2.95452 0,1.63102 0.70479,2.95452 1.57368,2.95452 0.86889,0 1.57422,-1.32148 1.57422,-2.95452 0,-0.31524 -0.0329,-0.61287 -0.0819,-0.89877 -0.17196,0.3699 -0.41749,0.61673 -0.69845,0.61673 z"
       id="path4302-2-1"
       inkscape:export-xdpi="150"
       inkscape:export-ydpi="150" />
    <path
       inkscape:connector-curvature="0"
       d="m 299.79497,593.14816 c -0.58382,-1.58204 -1.24691,-3.37371 -1.48458,-5.61374 -0.21267,-2.02256 -0.0126,-6.33997 2.26856,-8.19234 l -0.42329,-1.83861 c -2.52399,2.05106 -3.2694,6.84134 -2.89094,10.42147 0.27936,2.65118 1.04147,4.71197 1.6535,6.36848 0.56194,1.52035 1.00612,2.72077 0.89969,3.73087 -0.077,0.73813 -0.47748,1.54685 -1.18637,2.40051 -2.00795,2.41828 -4.52257,1.89327 -6.30232,1.08656 0.0615,-0.75187 0.10009,-1.51331 0.10009,-2.28883 0,-11.48757 -6.94345,-20.80101 -15.50842,-20.80101 -0.68337,0 -1.35378,0.0676 -2.01376,0.1821 -0.16936,2.08912 -0.44828,3.95422 -0.61765,5.0869 -1.16191,7.72719 -4.05812,13.33306 -6.8871,13.33306 -0.3607,0 -0.71828,-0.0921 -1.06228,-0.27214 -1.68376,-0.89474 -3.18031,-3.79376 -3.98206,-7.6519 l -7.66644,26.05777 c -0.18348,-0.139 -0.38204,-0.21932 -0.59319,-0.21932 -0.86791,0 -1.5727,1.32165 -1.5727,2.95468 0,1.63103 0.70479,2.95452 1.57368,2.95452 0.63488,0 1.17861,-0.70895 1.42833,-1.72509 l 20.46321,0.83807 c 0.30855,0.0236 0.61515,0.0627 0.92888,0.0627 0.0766,0 0.15276,-0.0156 0.22883,-0.0174 l 0.3774,0.0174 -0.0188,-0.0411 c 7.21343,-0.36219 13.16531,-7.31705 14.59159,-16.51194 0.86737,0.39355 1.90161,0.72438 2.99219,0.72438 1.36574,0 2.81585,-0.51696 4.11383,-2.08342 0.9905,-1.19237 1.51797,-2.36513 1.65984,-3.69466 0.19597,-1.84431 -0.41918,-3.50669 -1.06977,-5.26799 z m -35.71727,16.95932 c -1.44654,0 -2.62042,-2.20466 -2.62042,-4.92242 0,-2.7196 1.17388,-4.92223 2.62042,-4.92223 1.44654,0 2.62096,2.2028 2.62096,4.92223 0,2.71776 -1.17334,4.92242 -2.62096,4.92242 z"
       id="path4304-6-3"
       inkscape:export-xdpi="150"
       inkscape:export-ydpi="150" />
    <path
       style="opacity:1;fill:#ff0000;fill-opacity:1;fill-rule:evenodd;stroke:none;stroke-width:1px;stroke-linecap:butt;stroke-linejoin:round;stroke-miterlimit:10;stroke-dasharray:none;stroke-dashoffset:0;stroke-opacity:1"
       d="m 278.1239,600.60435 -5.5405,0.44412 0.0881,-9.49355 5.52539,1.18412 z"
       id="path4160-0-8-7"
       inkscape:connector-curvature="0"
       inkscape:export-xdpi="150"
       inkscape:export-ydpi="150" />
    <flowRoot
       transform="translate(12.626908,369.71582)"
       xml:space="preserve"
       id="flowRoot4918-3"
       style="font-style:normal;font-variant:normal;font-weight:bold;font-stretch:normal;font-size:22.5px;line-height:125%;font-family:sans-serif;-inkscape-font-specification:'sans-serif Bold';letter-spacing:0px;word-spacing:0px;fill:#000000;fill-opacity:1;stroke:none;stroke-width:1px;stroke-linecap:butt;stroke-linejoin:miter;stroke-opacity:1"
       inkscape:export-xdpi="150"
       inkscape:export-ydpi="150"><flowRegion
         id="flowRegion4920-9"><rect
           id="rect4922-7"
           width="98.994949"
           height="40.406101"
           x="65.659912"
           y="180.60056"
           style="font-style:normal;font-variant:normal;font-weight:bold;font-stretch:normal;font-size:22.5px;font-family:sans-serif;-inkscape-font-specification:'sans-serif Bold'" /></flowRegion><flowPara
         id="flowPara4924-9">Disk</flowPara></flowRoot>  </g>
</svg>
